<mxfile host="www.draw.io" modified="2020-02-03T07:44:51.539Z" agent="Mozilla/5.0 (Windows NT 10.0; Win64; x64) AppleWebKit/537.36 (KHTML, like Gecko) Chrome/79.0.3945.130 Safari/537.36" etag="x3uKhCq956rtjN1XpeFR" version="12.6.4" type="github">
  <diagram id="UIjv7NlaMQD3ffaSfODR" name="Page-1">
    <mxGraphModel dx="2272" dy="794" grid="1" gridSize="10" guides="1" tooltips="1" connect="1" arrows="1" fold="1" page="1" pageScale="1" pageWidth="850" pageHeight="1100" math="0" shadow="0">
      <root>
        <mxCell id="0"/>
        <mxCell id="1" parent="0"/>
        <mxCell id="lvVu3ByAZ-dibW5VKgH4-49" style="edgeStyle=orthogonalEdgeStyle;rounded=0;orthogonalLoop=1;jettySize=auto;html=1;entryX=0.5;entryY=0;entryDx=0;entryDy=0;exitX=0.75;exitY=1;exitDx=0;exitDy=0;" edge="1" parent="1" source="lvVu3ByAZ-dibW5VKgH4-56" target="lvVu3ByAZ-dibW5VKgH4-62">
          <mxGeometry relative="1" as="geometry"/>
        </mxCell>
        <mxCell id="lvVu3ByAZ-dibW5VKgH4-50" value="Pull" style="text;html=1;align=center;verticalAlign=middle;resizable=0;points=[];labelBackgroundColor=#ffffff;" vertex="1" connectable="0" parent="lvVu3ByAZ-dibW5VKgH4-49">
          <mxGeometry x="0.4737" y="-13" relative="1" as="geometry">
            <mxPoint x="13" y="13" as="offset"/>
          </mxGeometry>
        </mxCell>
        <mxCell id="lvVu3ByAZ-dibW5VKgH4-51" value="Pull" style="text;html=1;align=center;verticalAlign=middle;resizable=0;points=[];labelBackgroundColor=#ffffff;" vertex="1" connectable="0" parent="lvVu3ByAZ-dibW5VKgH4-49">
          <mxGeometry x="0.0476" y="-1" relative="1" as="geometry">
            <mxPoint as="offset"/>
          </mxGeometry>
        </mxCell>
        <mxCell id="lvVu3ByAZ-dibW5VKgH4-52" style="edgeStyle=orthogonalEdgeStyle;rounded=0;orthogonalLoop=1;jettySize=auto;html=1;exitX=0.25;exitY=1;exitDx=0;exitDy=0;entryX=0.5;entryY=0;entryDx=0;entryDy=0;" edge="1" parent="1" source="lvVu3ByAZ-dibW5VKgH4-56" target="lvVu3ByAZ-dibW5VKgH4-70">
          <mxGeometry relative="1" as="geometry"/>
        </mxCell>
        <mxCell id="lvVu3ByAZ-dibW5VKgH4-53" value="Pull" style="text;html=1;align=center;verticalAlign=middle;resizable=0;points=[];labelBackgroundColor=#ffffff;" vertex="1" connectable="0" parent="lvVu3ByAZ-dibW5VKgH4-52">
          <mxGeometry x="0.0588" relative="1" as="geometry">
            <mxPoint as="offset"/>
          </mxGeometry>
        </mxCell>
        <mxCell id="lvVu3ByAZ-dibW5VKgH4-54" value="Pull" style="edgeStyle=orthogonalEdgeStyle;rounded=0;orthogonalLoop=1;jettySize=auto;html=1;exitX=0;exitY=0.5;exitDx=0;exitDy=0;entryX=0.5;entryY=0;entryDx=0;entryDy=0;" edge="1" parent="1" source="lvVu3ByAZ-dibW5VKgH4-56" target="lvVu3ByAZ-dibW5VKgH4-78">
          <mxGeometry relative="1" as="geometry"/>
        </mxCell>
        <mxCell id="lvVu3ByAZ-dibW5VKgH4-55" value="Pull" style="edgeStyle=orthogonalEdgeStyle;rounded=0;orthogonalLoop=1;jettySize=auto;html=1;" edge="1" parent="1" source="lvVu3ByAZ-dibW5VKgH4-56" target="lvVu3ByAZ-dibW5VKgH4-69">
          <mxGeometry relative="1" as="geometry">
            <Array as="points">
              <mxPoint x="-50" y="190"/>
              <mxPoint x="-50" y="190"/>
            </Array>
          </mxGeometry>
        </mxCell>
        <mxCell id="lvVu3ByAZ-dibW5VKgH4-56" value="Develop" style="rounded=1;whiteSpace=wrap;html=1;fontSize=12;glass=0;strokeWidth=1;shadow=0;fillColor=#1ba1e2;strokeColor=#006EAF;fontColor=#ffffff;" vertex="1" parent="1">
          <mxGeometry x="-110" y="120" width="120" height="40" as="geometry"/>
        </mxCell>
        <mxCell id="lvVu3ByAZ-dibW5VKgH4-57" style="edgeStyle=orthogonalEdgeStyle;rounded=0;orthogonalLoop=1;jettySize=auto;html=1;entryX=0.75;entryY=0;entryDx=0;entryDy=0;" edge="1" parent="1" source="lvVu3ByAZ-dibW5VKgH4-62" target="lvVu3ByAZ-dibW5VKgH4-64">
          <mxGeometry relative="1" as="geometry">
            <Array as="points">
              <mxPoint x="340" y="220"/>
            </Array>
          </mxGeometry>
        </mxCell>
        <mxCell id="lvVu3ByAZ-dibW5VKgH4-58" value="Pull" style="text;html=1;align=center;verticalAlign=middle;resizable=0;points=[];labelBackgroundColor=#ffffff;" vertex="1" connectable="0" parent="lvVu3ByAZ-dibW5VKgH4-57">
          <mxGeometry x="-0.0114" relative="1" as="geometry">
            <mxPoint as="offset"/>
          </mxGeometry>
        </mxCell>
        <mxCell id="lvVu3ByAZ-dibW5VKgH4-59" style="edgeStyle=orthogonalEdgeStyle;rounded=0;orthogonalLoop=1;jettySize=auto;html=1;" edge="1" parent="1" source="lvVu3ByAZ-dibW5VKgH4-62">
          <mxGeometry relative="1" as="geometry">
            <mxPoint x="10" y="140" as="targetPoint"/>
            <Array as="points">
              <mxPoint x="130" y="140"/>
            </Array>
          </mxGeometry>
        </mxCell>
        <mxCell id="lvVu3ByAZ-dibW5VKgH4-60" value="Pull Request" style="text;html=1;align=center;verticalAlign=middle;resizable=0;points=[];labelBackgroundColor=#ffffff;" vertex="1" connectable="0" parent="lvVu3ByAZ-dibW5VKgH4-59">
          <mxGeometry x="-0.3444" y="23" relative="1" as="geometry">
            <mxPoint as="offset"/>
          </mxGeometry>
        </mxCell>
        <mxCell id="lvVu3ByAZ-dibW5VKgH4-61" value="Pull" style="edgeStyle=orthogonalEdgeStyle;rounded=0;orthogonalLoop=1;jettySize=auto;html=1;exitX=0.342;exitY=0.975;exitDx=0;exitDy=0;exitPerimeter=0;entryX=0.342;entryY=0;entryDx=0;entryDy=0;entryPerimeter=0;" edge="1" parent="1" source="lvVu3ByAZ-dibW5VKgH4-62" target="lvVu3ByAZ-dibW5VKgH4-68">
          <mxGeometry relative="1" as="geometry"/>
        </mxCell>
        <mxCell id="lvVu3ByAZ-dibW5VKgH4-62" value="Common" style="rounded=1;whiteSpace=wrap;html=1;fontSize=12;glass=0;strokeWidth=1;shadow=0;fillColor=#ffcc99;strokeColor=#36393d;" vertex="1" parent="1">
          <mxGeometry x="90" y="200" width="120" height="40" as="geometry"/>
        </mxCell>
        <mxCell id="lvVu3ByAZ-dibW5VKgH4-63" value="Pull Request&amp;nbsp;" style="edgeStyle=orthogonalEdgeStyle;rounded=0;orthogonalLoop=1;jettySize=auto;html=1;" edge="1" parent="1" source="lvVu3ByAZ-dibW5VKgH4-64">
          <mxGeometry relative="1" as="geometry">
            <mxPoint x="210" y="207" as="targetPoint"/>
            <Array as="points">
              <mxPoint x="270" y="207"/>
            </Array>
          </mxGeometry>
        </mxCell>
        <mxCell id="lvVu3ByAZ-dibW5VKgH4-64" value="Testing" style="rounded=1;whiteSpace=wrap;html=1;fontSize=12;glass=0;strokeWidth=1;shadow=0;fillColor=#bac8d3;strokeColor=#23445d;" vertex="1" parent="1">
          <mxGeometry x="250" y="320" width="120" height="40" as="geometry"/>
        </mxCell>
        <mxCell id="lvVu3ByAZ-dibW5VKgH4-65" value="Hotfix" style="rounded=1;whiteSpace=wrap;html=1;fontSize=12;glass=0;strokeWidth=1;shadow=0;fillColor=#FF6666;strokeColor=#B20000;fontColor=#ffffff;" vertex="1" parent="1">
          <mxGeometry x="250" y="400" width="120" height="40" as="geometry"/>
        </mxCell>
        <mxCell id="lvVu3ByAZ-dibW5VKgH4-66" style="edgeStyle=orthogonalEdgeStyle;rounded=0;orthogonalLoop=1;jettySize=auto;html=1;exitX=0.75;exitY=0;exitDx=0;exitDy=0;entryX=0.75;entryY=1;entryDx=0;entryDy=0;" edge="1" parent="1" source="lvVu3ByAZ-dibW5VKgH4-68" target="lvVu3ByAZ-dibW5VKgH4-62">
          <mxGeometry relative="1" as="geometry"/>
        </mxCell>
        <mxCell id="lvVu3ByAZ-dibW5VKgH4-67" value="Pull Request" style="text;html=1;align=center;verticalAlign=middle;resizable=0;points=[];labelBackgroundColor=#ffffff;" vertex="1" connectable="0" parent="lvVu3ByAZ-dibW5VKgH4-66">
          <mxGeometry y="-2" relative="1" as="geometry">
            <mxPoint as="offset"/>
          </mxGeometry>
        </mxCell>
        <mxCell id="lvVu3ByAZ-dibW5VKgH4-68" value="Common Feature 1" style="rounded=1;whiteSpace=wrap;html=1;fontSize=12;glass=0;strokeWidth=1;shadow=0;fillColor=#ffff88;strokeColor=#36393d;" vertex="1" parent="1">
          <mxGeometry x="90" y="320" width="120" height="40" as="geometry"/>
        </mxCell>
        <mxCell id="lvVu3ByAZ-dibW5VKgH4-69" value="New Client" style="rounded=1;whiteSpace=wrap;html=1;fontSize=12;glass=0;strokeWidth=1;shadow=0;fillColor=#dae8fc;strokeColor=#6c8ebf;" vertex="1" parent="1">
          <mxGeometry x="-70" y="200" width="120" height="40" as="geometry"/>
        </mxCell>
        <mxCell id="lvVu3ByAZ-dibW5VKgH4-70" value="IBL" style="rounded=1;whiteSpace=wrap;html=1;fontSize=12;glass=0;strokeWidth=1;shadow=0;fillColor=#dae8fc;strokeColor=#6c8ebf;" vertex="1" parent="1">
          <mxGeometry x="-230" y="200" width="120" height="40" as="geometry"/>
        </mxCell>
        <mxCell id="lvVu3ByAZ-dibW5VKgH4-71" style="edgeStyle=orthogonalEdgeStyle;rounded=0;orthogonalLoop=1;jettySize=auto;html=1;exitX=0;exitY=0.5;exitDx=0;exitDy=0;entryX=0.25;entryY=0;entryDx=0;entryDy=0;" edge="1" parent="1" source="lvVu3ByAZ-dibW5VKgH4-78" target="lvVu3ByAZ-dibW5VKgH4-85">
          <mxGeometry relative="1" as="geometry">
            <Array as="points">
              <mxPoint x="-390" y="230"/>
              <mxPoint x="-560" y="230"/>
            </Array>
          </mxGeometry>
        </mxCell>
        <mxCell id="lvVu3ByAZ-dibW5VKgH4-72" value="Pull" style="text;html=1;align=center;verticalAlign=middle;resizable=0;points=[];labelBackgroundColor=#ffffff;" vertex="1" connectable="0" parent="lvVu3ByAZ-dibW5VKgH4-71">
          <mxGeometry x="-0.1943" y="-3" relative="1" as="geometry">
            <mxPoint as="offset"/>
          </mxGeometry>
        </mxCell>
        <mxCell id="lvVu3ByAZ-dibW5VKgH4-73" style="edgeStyle=orthogonalEdgeStyle;rounded=0;orthogonalLoop=1;jettySize=auto;html=1;exitX=0.75;exitY=1;exitDx=0;exitDy=0;entryX=0.667;entryY=-0.075;entryDx=0;entryDy=0;entryPerimeter=0;" edge="1" parent="1" source="lvVu3ByAZ-dibW5VKgH4-78" target="lvVu3ByAZ-dibW5VKgH4-92">
          <mxGeometry relative="1" as="geometry"/>
        </mxCell>
        <mxCell id="lvVu3ByAZ-dibW5VKgH4-74" value="Pull" style="text;html=1;align=center;verticalAlign=middle;resizable=0;points=[];labelBackgroundColor=#ffffff;" vertex="1" connectable="0" parent="lvVu3ByAZ-dibW5VKgH4-73">
          <mxGeometry x="0.6221" y="-1" relative="1" as="geometry">
            <mxPoint as="offset"/>
          </mxGeometry>
        </mxCell>
        <mxCell id="lvVu3ByAZ-dibW5VKgH4-75" value="Pull" style="edgeStyle=orthogonalEdgeStyle;rounded=0;orthogonalLoop=1;jettySize=auto;html=1;exitX=0.5;exitY=1;exitDx=0;exitDy=0;entryX=0.5;entryY=0;entryDx=0;entryDy=0;" edge="1" parent="1" source="lvVu3ByAZ-dibW5VKgH4-78" target="lvVu3ByAZ-dibW5VKgH4-82">
          <mxGeometry relative="1" as="geometry">
            <Array as="points">
              <mxPoint x="-330" y="300"/>
              <mxPoint x="-210" y="300"/>
            </Array>
          </mxGeometry>
        </mxCell>
        <mxCell id="lvVu3ByAZ-dibW5VKgH4-76" style="edgeStyle=orthogonalEdgeStyle;rounded=0;orthogonalLoop=1;jettySize=auto;html=1;exitX=0.375;exitY=1;exitDx=0;exitDy=0;exitPerimeter=0;" edge="1" parent="1" source="lvVu3ByAZ-dibW5VKgH4-78">
          <mxGeometry relative="1" as="geometry">
            <mxPoint x="-345" y="318" as="targetPoint"/>
          </mxGeometry>
        </mxCell>
        <mxCell id="lvVu3ByAZ-dibW5VKgH4-77" value="Pull" style="text;html=1;align=center;verticalAlign=middle;resizable=0;points=[];labelBackgroundColor=#ffffff;" vertex="1" connectable="0" parent="lvVu3ByAZ-dibW5VKgH4-76">
          <mxGeometry x="0.0256" y="-6" relative="1" as="geometry">
            <mxPoint x="3" y="-5" as="offset"/>
          </mxGeometry>
        </mxCell>
        <mxCell id="lvVu3ByAZ-dibW5VKgH4-78" value="SSFB" style="rounded=1;whiteSpace=wrap;html=1;fontSize=12;glass=0;strokeWidth=1;shadow=0;fillColor=#dae8fc;strokeColor=#6c8ebf;" vertex="1" parent="1">
          <mxGeometry x="-390" y="200" width="120" height="40" as="geometry"/>
        </mxCell>
        <mxCell id="lvVu3ByAZ-dibW5VKgH4-79" style="edgeStyle=orthogonalEdgeStyle;rounded=0;orthogonalLoop=1;jettySize=auto;html=1;exitX=0.25;exitY=0;exitDx=0;exitDy=0;entryX=0.192;entryY=1.025;entryDx=0;entryDy=0;entryPerimeter=0;" edge="1" parent="1" source="lvVu3ByAZ-dibW5VKgH4-81" target="lvVu3ByAZ-dibW5VKgH4-78">
          <mxGeometry relative="1" as="geometry"/>
        </mxCell>
        <mxCell id="lvVu3ByAZ-dibW5VKgH4-80" value="Pull&lt;br&gt;Request" style="text;html=1;align=center;verticalAlign=middle;resizable=0;points=[];labelBackgroundColor=#ffffff;" vertex="1" connectable="0" parent="lvVu3ByAZ-dibW5VKgH4-79">
          <mxGeometry x="-0.26" relative="1" as="geometry">
            <mxPoint as="offset"/>
          </mxGeometry>
        </mxCell>
        <mxCell id="lvVu3ByAZ-dibW5VKgH4-81" value="SSFB FEATURE 2" style="rounded=1;whiteSpace=wrap;html=1;fontSize=12;glass=0;strokeWidth=1;shadow=0;fillColor=#ffff88;strokeColor=#36393d;" vertex="1" parent="1">
          <mxGeometry x="-430" y="320" width="120" height="40" as="geometry"/>
        </mxCell>
        <mxCell id="lvVu3ByAZ-dibW5VKgH4-82" value="UAT" style="rounded=1;whiteSpace=wrap;html=1;fontSize=12;glass=0;strokeWidth=1;shadow=0;fillColor=#ffff88;strokeColor=#36393d;" vertex="1" parent="1">
          <mxGeometry x="-270" y="320" width="120" height="40" as="geometry"/>
        </mxCell>
        <mxCell id="lvVu3ByAZ-dibW5VKgH4-83" style="edgeStyle=orthogonalEdgeStyle;rounded=0;orthogonalLoop=1;jettySize=auto;html=1;exitX=0.75;exitY=0;exitDx=0;exitDy=0;entryX=0;entryY=0.25;entryDx=0;entryDy=0;" edge="1" parent="1" source="lvVu3ByAZ-dibW5VKgH4-85" target="lvVu3ByAZ-dibW5VKgH4-78">
          <mxGeometry relative="1" as="geometry"/>
        </mxCell>
        <mxCell id="lvVu3ByAZ-dibW5VKgH4-84" value="Pull Request" style="text;html=1;align=center;verticalAlign=middle;resizable=0;points=[];labelBackgroundColor=#ffffff;" vertex="1" connectable="0" parent="lvVu3ByAZ-dibW5VKgH4-83">
          <mxGeometry x="0.3733" relative="1" as="geometry">
            <mxPoint as="offset"/>
          </mxGeometry>
        </mxCell>
        <mxCell id="lvVu3ByAZ-dibW5VKgH4-85" value="SSFB FEATURE 1" style="rounded=1;whiteSpace=wrap;html=1;fontSize=12;glass=0;strokeWidth=1;shadow=0;fillColor=#ffff88;strokeColor=#36393d;" vertex="1" parent="1">
          <mxGeometry x="-590" y="320" width="120" height="40" as="geometry"/>
        </mxCell>
        <mxCell id="lvVu3ByAZ-dibW5VKgH4-86" value="Production" style="rounded=1;whiteSpace=wrap;html=1;fontSize=12;glass=0;strokeWidth=1;shadow=0;fillColor=#99FF33;" vertex="1" parent="1">
          <mxGeometry x="-270" y="400" width="120" height="40" as="geometry"/>
        </mxCell>
        <mxCell id="lvVu3ByAZ-dibW5VKgH4-87" value="Pull" style="edgeStyle=orthogonalEdgeStyle;rounded=0;orthogonalLoop=1;jettySize=auto;html=1;exitX=0.342;exitY=0.975;exitDx=0;exitDy=0;exitPerimeter=0;entryX=0.342;entryY=0;entryDx=0;entryDy=0;entryPerimeter=0;" edge="1" parent="1">
          <mxGeometry relative="1" as="geometry">
            <mxPoint x="291.03999999999996" y="359" as="sourcePoint"/>
            <mxPoint x="291.03999999999996" y="400" as="targetPoint"/>
          </mxGeometry>
        </mxCell>
        <mxCell id="lvVu3ByAZ-dibW5VKgH4-88" style="edgeStyle=orthogonalEdgeStyle;rounded=0;orthogonalLoop=1;jettySize=auto;html=1;exitX=0.75;exitY=0;exitDx=0;exitDy=0;entryX=0.75;entryY=1;entryDx=0;entryDy=0;" edge="1" parent="1">
          <mxGeometry relative="1" as="geometry">
            <mxPoint x="340" y="400" as="sourcePoint"/>
            <mxPoint x="340" y="360" as="targetPoint"/>
          </mxGeometry>
        </mxCell>
        <mxCell id="lvVu3ByAZ-dibW5VKgH4-89" value="Push" style="text;html=1;align=center;verticalAlign=middle;resizable=0;points=[];labelBackgroundColor=#ffffff;" vertex="1" connectable="0" parent="lvVu3ByAZ-dibW5VKgH4-88">
          <mxGeometry y="-2" relative="1" as="geometry">
            <mxPoint as="offset"/>
          </mxGeometry>
        </mxCell>
        <mxCell id="lvVu3ByAZ-dibW5VKgH4-90" value="Pull" style="edgeStyle=orthogonalEdgeStyle;rounded=0;orthogonalLoop=1;jettySize=auto;html=1;exitX=0.342;exitY=0.975;exitDx=0;exitDy=0;exitPerimeter=0;entryX=0.342;entryY=0;entryDx=0;entryDy=0;entryPerimeter=0;" edge="1" parent="1">
          <mxGeometry relative="1" as="geometry">
            <mxPoint x="-208.96000000000004" y="359" as="sourcePoint"/>
            <mxPoint x="-208.96000000000004" y="400" as="targetPoint"/>
          </mxGeometry>
        </mxCell>
        <mxCell id="lvVu3ByAZ-dibW5VKgH4-91" value="Pull Request" style="edgeStyle=orthogonalEdgeStyle;rounded=0;orthogonalLoop=1;jettySize=auto;html=1;exitX=0.25;exitY=0;exitDx=0;exitDy=0;entryX=0.858;entryY=1.05;entryDx=0;entryDy=0;entryPerimeter=0;" edge="1" parent="1" source="lvVu3ByAZ-dibW5VKgH4-92" target="lvVu3ByAZ-dibW5VKgH4-78">
          <mxGeometry relative="1" as="geometry">
            <Array as="points">
              <mxPoint x="-80" y="270"/>
              <mxPoint x="-287" y="270"/>
            </Array>
          </mxGeometry>
        </mxCell>
        <mxCell id="lvVu3ByAZ-dibW5VKgH4-92" value="Testing" style="rounded=1;whiteSpace=wrap;html=1;fontSize=12;glass=0;strokeWidth=1;shadow=0;fillColor=#bac8d3;strokeColor=#23445d;" vertex="1" parent="1">
          <mxGeometry x="-110" y="320" width="120" height="40" as="geometry"/>
        </mxCell>
        <mxCell id="lvVu3ByAZ-dibW5VKgH4-93" value="Hotfix" style="rounded=1;whiteSpace=wrap;html=1;fontSize=12;glass=0;strokeWidth=1;shadow=0;fillColor=#FF6666;strokeColor=#B20000;fontColor=#ffffff;" vertex="1" parent="1">
          <mxGeometry x="-110" y="400" width="120" height="40" as="geometry"/>
        </mxCell>
        <mxCell id="lvVu3ByAZ-dibW5VKgH4-94" value="Pull" style="edgeStyle=orthogonalEdgeStyle;rounded=0;orthogonalLoop=1;jettySize=auto;html=1;exitX=0.342;exitY=0.975;exitDx=0;exitDy=0;exitPerimeter=0;entryX=0.342;entryY=0;entryDx=0;entryDy=0;entryPerimeter=0;" edge="1" parent="1">
          <mxGeometry relative="1" as="geometry">
            <mxPoint x="-68.96000000000004" y="359" as="sourcePoint"/>
            <mxPoint x="-68.96000000000004" y="400" as="targetPoint"/>
          </mxGeometry>
        </mxCell>
        <mxCell id="lvVu3ByAZ-dibW5VKgH4-95" style="edgeStyle=orthogonalEdgeStyle;rounded=0;orthogonalLoop=1;jettySize=auto;html=1;exitX=0.75;exitY=0;exitDx=0;exitDy=0;entryX=0.75;entryY=1;entryDx=0;entryDy=0;" edge="1" parent="1">
          <mxGeometry relative="1" as="geometry">
            <mxPoint x="-20" y="400" as="sourcePoint"/>
            <mxPoint x="-20" y="360" as="targetPoint"/>
          </mxGeometry>
        </mxCell>
        <mxCell id="lvVu3ByAZ-dibW5VKgH4-96" value="Push" style="text;html=1;align=center;verticalAlign=middle;resizable=0;points=[];labelBackgroundColor=#ffffff;" vertex="1" connectable="0" parent="lvVu3ByAZ-dibW5VKgH4-95">
          <mxGeometry y="-2" relative="1" as="geometry">
            <mxPoint as="offset"/>
          </mxGeometry>
        </mxCell>
      </root>
    </mxGraphModel>
  </diagram>
</mxfile>
